<?xml version="1.0" encoding="utf-8"?><svg version="1.1" id="Layer_1" xmlns="http://www.w3.org/2000/svg" xmlns:xlink="http://www.w3.org/1999/xlink" x="0px" y="0px" viewBox="0 0 122.88 122.87" style="enable-background:new 0 0 122.88 122.87" xml:space="preserve"><style type="text/css">.st0{fill:#F05133;}</style><g><path class="st0" d="M120.56,55.96L66.91,2.32c-3.09-3.09-8.1-3.09-11.19,0L44.58,13.46l14.13,14.13c3.29-1.11,7.05-0.37,9.67,2.25 c2.63,2.63,3.37,6.43,2.23,9.73l13.62,13.62c3.3-1.14,7.1-0.4,9.73,2.23c3.68,3.68,3.68,9.64,0,13.31c-3.68,3.68-9.64,3.68-13.32,0 c-2.77-2.77-3.45-6.83-2.05-10.24l-12.7-12.7l0,33.43c0.9,0.44,1.74,1.04,2.49,1.78c3.68,3.68,3.68,9.64,0,13.32 c-3.68,3.68-9.64,3.68-13.31,0c-3.68-3.68-3.68-9.64,0-13.32c0.91-0.91,1.96-1.59,3.08-2.05V45.21c-1.12-0.46-2.17-1.14-3.08-2.05 c-2.79-2.78-3.46-6.87-2.03-10.29L39.1,18.93L2.32,55.72c-3.09,3.09-3.09,8.1,0,11.19l53.65,53.65c3.09,3.09,8.1,3.09,11.19,0 l53.4-53.39C123.65,64.07,123.65,59.06,120.56,55.96L120.56,55.96L120.56,55.96z M120.56,55.96L120.56,55.96L120.56,55.96 L120.56,55.96z"/></g></svg>