<svg id="Layer_1" data-name="Layer 1" xmlns="http://www.w3.org/2000/svg" viewBox="0 0 100.33 122.88"><defs><style>.cls-1{fill:#383838;}.cls-1,.cls-2,.cls-3,.cls-4,.cls-5,.cls-6{fill-rule:evenodd;}.cls-2{fill:#f7e5d9;}.cls-3{fill:#33a867;}.cls-4{fill:#fdba21;}.cls-5{fill:#fb434c;}.cls-6{fill:#47bcff;}</style></defs><title>painting</title><path class="cls-1" d="M90.59,54a9.75,9.75,0,0,0-7,2.13L75.7,41.53a29,29,0,0,1,13.89-4.22c.36,7,0,9.6,1,16.66Z"/><path class="cls-1" d="M88.6,34.92A33.27,33.27,0,0,0,74.75,39l-6-32.94c-.6-2.61-.64-4.53,2.28-6a4,4,0,0,1,2.89.32,4.38,4.38,0,0,1,1.82,2.39L88.6,34.92Z"/><path class="cls-2" d="M54.45,122.47c16.11-2.33,30.4-12.87,38.67-26.18a8.23,8.23,0,0,1-2-.56,7.86,7.86,0,0,1-4.25-4.54c-.6-1.4-2.7-3-4.75-4.61-5.82-4.5-11.46-8.88-10.23-19a18.34,18.34,0,0,1,2-6.26l-7.61-14a7.93,7.93,0,0,1-.86-2.52c-.09-.18-.18-.35-.25-.53a38.56,38.56,0,0,1-7.17,3.22c-13.8,4.34-23.2-1.87-12.36-16.12,7.41-9.74-8.94-18.56-23.43-8.72C10.41,30.66.18,48.29,0,67.68c-.25,28.06,24.34,59.14,54.45,54.79Z"/><path class="cls-3" d="M13.46,83.23A8.9,8.9,0,1,0,14.9,70.72a8.91,8.91,0,0,0-1.44,12.51Z"/><path class="cls-4" d="M33.58,105.71a10.28,10.28,0,1,0,1.66-14.45,10.29,10.29,0,0,0-1.66,14.45Z"/><path class="cls-5" d="M61.67,97.29A8.45,8.45,0,0,0,74.9,86.79c-6.9-8.68-20.13,1.8-13.23,10.5Z"/><path class="cls-1" d="M96.63,86.43c-3.12-8.28-15.78-10.09-14.57-20.07a10.32,10.32,0,0,1,4.25-7,6.75,6.75,0,0,1,3.12-1.14,7.25,7.25,0,0,1,1.54,0c6.55.84,9.4,7.69,9.36,13.63,0,5.48-2.12,11-3.7,14.6Z"/><path class="cls-6" d="M15.87,55.39a7.52,7.52,0,1,0,1.21-10.56,7.51,7.51,0,0,0-1.21,10.56Z"/></svg>