<?xml version="1.0" encoding="utf-8"?>

<svg version="1.1" id="Layer_1" xmlns="http://www.w3.org/2000/svg" xmlns:xlink="http://www.w3.org/1999/xlink" x="0px" y="0px"
	 viewBox="0 0 1792 1792" style="enable-background:new 0 0 1792 1792;" xml:space="preserve">
<path d="M96,895.8l546.5,371.7V1008c5.7-13.5,13.2-25.6,22.4-30.6c20.3-10.3,88.3-6.4,215,75.1c158.8,102.2,315.4,136.7,465.7,102.2
	C1571.4,1103,1691,910.4,1696,902.2l-204-124.6c-0.7,1.1-73.3,115-199.7,143.8c-85.1,19.6-180.5-4.3-283-70.1
	C887.8,773,779.6,733.8,686.7,733.8c-15.3,0-29.9,1.4-44.1,3.6V524.5L96,895.8z"/>
</svg>
